# MagicaVoxel @ Ephtracy

# group
g Shoot Enemy

# material
mtllib Shoot Enemy.mtl
usemtl palette

# normals
vn -1 0 0
vn 1 0 0
vn 0 0 1
vn 0 0 -1
vn 0 -1 0
vn 0 1 0

# texcoords
vt 0.837891 0.5
vt 0.841797 0.5
vt 0.958984 0.5

# verts
v -2.5 0 2.5
v -2.5 0 1.5
v -2.5 0 -2.5
v -2.5 1 2.5
v -2.5 1 1.5
v -2.5 5 2.5
v -2.5 5 -2.5
v 2.5 0 2.5
v 2.5 0 1.5
v 2.5 0 -2.5
v 2.5 1 2.5
v 2.5 1 1.5
v 2.5 5 2.5
v 2.5 5 -2.5
v -2.5 0 2.5
v -2.5 1 2.5
v -2.5 5 2.5
v -1.5 0 2.5
v -1.5 1 2.5
v -1.5 2 2.5
v -1.5 3 2.5
v -1.5 4 2.5
v -0.5 3 2.5
v -0.5 4 2.5
v 0.5 3 2.5
v 0.5 4 2.5
v 1.5 0 2.5
v 1.5 1 2.5
v 1.5 2 2.5
v 1.5 3 2.5
v 1.5 4 2.5
v 2.5 0 2.5
v 2.5 1 2.5
v 2.5 5 2.5
v -2.5 0 -2.5
v -2.5 5 -2.5
v 2.5 0 -2.5
v 2.5 5 -2.5
v -2.5 0 2.5
v -1.5 0 2.5
v 1.5 0 2.5
v 2.5 0 2.5
v -2.5 0 1.5
v -1.5 0 1.5
v 1.5 0 1.5
v 2.5 0 1.5
v -2.5 0 -2.5
v 2.5 0 -2.5
v -2.5 5 2.5
v 2.5 5 2.5
v -2.5 5 -2.5
v 2.5 5 -2.5

# faces
f 4/3/1 2/3/1 1/3/1
f 5/1/1 3/1/1 2/1/1
f 5/3/1 2/3/1 4/3/1
f 6/1/1 5/1/1 4/1/1
f 7/1/1 3/1/1 5/1/1
f 7/1/1 5/1/1 6/1/1
f 8/3/2 9/3/2 11/3/2
f 9/1/2 10/1/2 12/1/2
f 11/3/2 9/3/2 12/3/2
f 11/1/2 12/1/2 13/1/2
f 12/1/2 10/1/2 14/1/2
f 13/1/2 12/1/2 14/1/2
f 18/3/3 16/3/3 15/3/3
f 19/1/3 17/1/3 16/1/3
f 19/3/3 16/3/3 18/3/3
f 20/1/3 17/1/3 19/1/3
f 21/1/3 17/1/3 20/1/3
f 22/1/3 17/1/3 21/1/3
f 23/1/3 21/1/3 20/1/3
f 23/3/3 22/3/3 21/3/3
f 24/1/3 17/1/3 22/1/3
f 24/3/3 22/3/3 23/3/3
f 25/1/3 23/1/3 20/1/3
f 25/1/3 24/1/3 23/1/3
f 26/1/3 17/1/3 24/1/3
f 26/1/3 24/1/3 25/1/3
f 27/1/3 19/1/3 18/1/3
f 28/3/3 20/3/3 19/3/3
f 28/1/3 19/1/3 27/1/3
f 29/1/3 25/1/3 20/1/3
f 29/3/3 20/3/3 28/3/3
f 30/3/3 26/3/3 25/3/3
f 30/1/3 25/1/3 29/1/3
f 31/1/3 17/1/3 26/1/3
f 31/3/3 26/3/3 30/3/3
f 32/3/3 28/3/3 27/3/3
f 33/1/3 30/1/3 29/1/3
f 33/3/3 28/3/3 32/3/3
f 33/1/3 29/1/3 28/1/3
f 33/1/3 31/1/3 30/1/3
f 34/1/3 17/1/3 31/1/3
f 34/1/3 31/1/3 33/1/3
f 35/1/4 36/1/4 37/1/4
f 37/1/4 36/1/4 38/1/4
f 43/3/5 40/3/5 39/3/5
f 44/1/5 41/1/5 40/1/5
f 44/3/5 40/3/5 43/3/5
f 45/3/5 42/3/5 41/3/5
f 45/1/5 41/1/5 44/1/5
f 46/3/5 42/3/5 45/3/5
f 47/1/5 44/1/5 43/1/5
f 47/1/5 45/1/5 44/1/5
f 47/1/5 46/1/5 45/1/5
f 48/1/5 46/1/5 47/1/5
f 49/1/6 50/1/6 51/1/6
f 51/1/6 50/1/6 52/1/6
